# xmcd
# 
# Track frame offsets:
#     150
#     17536
#     33315
#     52968
#     69406
#     84230
#     99762
#     117264
#     140522
#     167628
#     186769
#     204754
#     227368
#     239746
#     257431
#     271356
#     287624
#     317080
# 
# Disc length: 4423
# 
# Revision: 2
# Processed by: cddbd v1.5.2PL0 Copyright (c) Steve Scherf et al.
# Submitted via: fre:ac v1.0.27
# 
DISCID=e3114512
DTITLE=Various Artist - The Pilgrim: A Celebration Of Kris Kristofferson
DYEAR=2006
DGENRE=Country
TTITLE0=Emmylou Harris and Friends (Sam Bush, Jon Randall, Byron House, Randy Scruggs) - The Pilgrim: Chapter 33
TTITLE1=Todd Snider - Maybe You Heard
TTITLE2=Marta Gómez - The Circle
TTITLE3=Rosanne Cash - Lovin' Him Was Easier (Than Anything I’ll Ever Do Again)
TTITLE4=Rodney Crowell - Come Sundown
TTITLE5=Lloyd Cole and Jill Sobule - For The Good Times
TTITLE6=Marshall Chapman - Jesus Was A Capricorn
TTITLE7=Shooter Jennings - Silver Tongued Devil and I
TTITLE8=Gretchen Wilson - Sunday Mornin' Comin' Down
TTITLE9=Patty Griffin and Charanga Cakewalk - Sandinista
TTITLE10=Russell Crowe and The Ordinary Fear of God - Darby's Castle
TTITLE11=Brian McKnight - Me and Bobby McGee
TTITLE12=Randy Scruggs - Smile At Me Again (instrumental)
TTITLE13=Jessi Colter w/special guest Vance Haines - The Captive
TTITLE14=Bruce Robison and Kelly Willis - Help Me Make It Through The Night
TTITLE15=Shawn Camp - Why Me Lord
TTITLE16=Willie Nelson - The Legend
TTITLE17=Kris Kristofferson - Please Don't Tell Me How The Story Ends
EXTD=
EXTT0=
EXTT1=
EXTT2=
EXTT3=
EXTT4=
EXTT5=
EXTT6=
EXTT7=
EXTT8=
EXTT9=
EXTT10=
EXTT11=
EXTT12=
EXTT13=
EXTT14=
EXTT15=
EXTT16=
EXTT17=
PLAYORDER=
